<?xml version="1.0" encoding="UTF-8" standalone="no"?><svg xmlns="http://www.w3.org/2000/svg" xmlns:xlink="http://www.w3.org/1999/xlink" contentScriptType="application/ecmascript" contentStyleType="text/css" height="432px" preserveAspectRatio="none" style="width:818px;height:432px;" version="1.1" viewBox="0 0 818 432" width="818px" zoomAndPan="magnify"><defs><filter height="300%" id="fj4ayzmf7v7ov" width="300%" x="-1" y="-1"><feGaussianBlur result="blurOut" stdDeviation="2.0"/><feColorMatrix in="blurOut" result="blurOut2" type="matrix" values="0 0 0 0 0 0 0 0 0 0 0 0 0 0 0 0 0 0 .4 0"/><feOffset dx="4.0" dy="4.0" in="blurOut2" result="blurOut3"/><feBlend in="SourceGraphic" in2="blurOut3" mode="normal"/></filter></defs><g><!--MD5=[ed71fae42bdba8b5458e919670e9e809]
cluster ef::home_widget.dart--><polygon fill="#FFFFFF" filter="url(#fj4ayzmf7v7ov)" points="22,147,198,147,205,169.2969,379,169.2969,379,297,22,297,22,147" style="stroke: #000000; stroke-width: 1.5;"/><line style="stroke: #000000; stroke-width: 1.5;" x1="22" x2="205" y1="169.2969" y2="169.2969"/><text fill="#000000" font-family="sans-serif" font-size="14" font-weight="bold" lengthAdjust="spacingAndGlyphs" textLength="170" x="26" y="161.9951">ef::home_widget.dart</text><!--MD5=[1b91236ccc4e258431d00b8b19fdf6ca]
cluster flutter::src::widgets::framework.dart--><polygon fill="#FFFFFF" filter="url(#fj4ayzmf7v7ov)" points="94,24,396,24,403,46.2969,548,46.2969,548,123,94,123,94,24" style="stroke: #000000; stroke-width: 1.5;"/><line style="stroke: #000000; stroke-width: 1.5;" x1="94" x2="403" y1="46.2969" y2="46.2969"/><text fill="#000000" font-family="sans-serif" font-size="14" font-weight="bold" lengthAdjust="spacingAndGlyphs" textLength="296" x="98" y="38.9951">flutter::src::widgets::framework.dart</text><!--MD5=[0b40f7742e4a98bcb4b901aac30e186f]
cluster ef::main.dart--><polygon fill="#FFFFFF" filter="url(#fj4ayzmf7v7ov)" points="403,166,511,166,518,188.2969,537,188.2969,537,278,403,278,403,166" style="stroke: #000000; stroke-width: 1.5;"/><line style="stroke: #000000; stroke-width: 1.5;" x1="403" x2="518" y1="188.2969" y2="188.2969"/><text fill="#000000" font-family="sans-serif" font-size="14" font-weight="bold" lengthAdjust="spacingAndGlyphs" textLength="102" x="407" y="180.9951">ef::main.dart</text><!--MD5=[792b9c557eb22a988f19e6c16cd92899]
cluster ef::placeholder_widget.dart--><polygon fill="#FFFFFF" filter="url(#fj4ayzmf7v7ov)" points="561,159.5,786,159.5,793,181.7969,796,181.7969,796,284.5,561,284.5,561,159.5" style="stroke: #000000; stroke-width: 1.5;"/><line style="stroke: #000000; stroke-width: 1.5;" x1="561" x2="793" y1="181.7969" y2="181.7969"/><text fill="#000000" font-family="sans-serif" font-size="14" font-weight="bold" lengthAdjust="spacingAndGlyphs" textLength="219" x="565" y="174.4951">ef::placeholder_widget.dart</text><!--MD5=[38be18612ed71996bdf82b0e8a8b954f]
cluster dart::ui--><polygon fill="#FFFFFF" filter="url(#fj4ayzmf7v7ov)" points="604,321,668,321,675,343.2969,700,343.2969,700,420,604,420,604,321" style="stroke: #000000; stroke-width: 1.5;"/><line style="stroke: #000000; stroke-width: 1.5;" x1="604" x2="675" y1="343.2969" y2="343.2969"/><text fill="#000000" font-family="sans-serif" font-size="14" font-weight="bold" lengthAdjust="spacingAndGlyphs" textLength="58" x="608" y="335.9951">dart::ui</text><!--MD5=[f62d7bbff4d9787370871734ba3e9431]
class ef::home_widget.dart::Home--><rect fill="#FEFECE" filter="url(#fj4ayzmf7v7ov)" height="60.8047" id="ef::home_widget.dart::Home" style="stroke: #A80036; stroke-width: 1.5;" width="134" x="229" y="201"/><ellipse cx="273.75" cy="217" fill="#ADD1B2" rx="11" ry="11" style="stroke: #A80036; stroke-width: 1.0;"/><path d="M276.0938,212.6719 L276.2656,212.75 C276.4844,212.4375 276.6875,212.3438 276.9844,212.3438 C277.2813,212.3438 277.5625,212.4844 277.7188,212.75 C277.8125,212.9063 277.8281,213.0313 277.8281,213.4688 L277.8281,214.8906 C277.8281,215.3125 277.7969,215.5 277.6875,215.6563 C277.5156,215.875 277.25,216.0156 276.9844,216.0156 C276.7656,216.0156 276.5313,215.9063 276.3906,215.7656 C276.25,215.6406 276.2188,215.5156 276.1563,215.1094 C276.0625,214.7031 275.8906,214.4844 275.4063,214.2031 C274.9375,213.9531 274.3281,213.7969 273.75,213.7969 C272.0156,213.7969 270.7656,215.1094 270.7656,216.8906 L270.7656,217.9844 C270.7656,219.6875 272.0625,220.7813 274.1094,220.7813 C274.875,220.7813 275.5625,220.6563 275.9844,220.3906 C276.1719,220.2969 276.1719,220.2969 276.625,219.8125 C276.8125,219.625 277.0156,219.5469 277.2344,219.5469 C277.7031,219.5469 278.0938,219.9375 278.0938,220.3906 C278.0938,220.7813 277.7656,221.2344 277.1875,221.6406 C276.4375,222.1875 275.2813,222.4844 274.0625,222.4844 C271.1719,222.4844 269.0625,220.5938 269.0625,218.0156 L269.0625,216.8906 C269.0625,214.1719 271.0625,212.0938 273.6875,212.0938 C274.5625,212.0938 275.1563,212.2344 276.0938,212.6719 Z "/><text fill="#000000" font-family="sans-serif" font-size="12" lengthAdjust="spacingAndGlyphs" textLength="36" x="294.25" y="221.1543">Home</text><line style="stroke: #A80036; stroke-width: 1.5;" x1="230" x2="362" y1="233" y2="233"/><line style="stroke: #A80036; stroke-width: 1.5;" x1="230" x2="362" y1="241" y2="241"/><ellipse cx="240" cy="252" fill="#84BE84" rx="3" ry="3" style="stroke: #038048; stroke-width: 1.0;"/><text fill="#000000" font-family="sans-serif" font-size="11" lengthAdjust="spacingAndGlyphs" textLength="108" x="249" y="255.2104">State createState()</text><!--MD5=[02443cbb12e5f342f47770336b23ff21]
class ef::home_widget.dart::_HomeState--><rect fill="#FEFECE" filter="url(#fj4ayzmf7v7ov)" height="99.2188" id="ef::home_widget.dart::_HomeState" style="stroke: #A80036; stroke-width: 1.5;" width="156" x="38" y="182"/><ellipse cx="74.6" cy="198" fill="#ADD1B2" rx="11" ry="11" style="stroke: #A80036; stroke-width: 1.0;"/><path d="M76.9438,193.6719 L77.1156,193.75 C77.3344,193.4375 77.5375,193.3438 77.8344,193.3438 C78.1313,193.3438 78.4125,193.4844 78.5688,193.75 C78.6625,193.9063 78.6781,194.0313 78.6781,194.4688 L78.6781,195.8906 C78.6781,196.3125 78.6469,196.5 78.5375,196.6563 C78.3656,196.875 78.1,197.0156 77.8344,197.0156 C77.6156,197.0156 77.3813,196.9063 77.2406,196.7656 C77.1,196.6406 77.0688,196.5156 77.0063,196.1094 C76.9125,195.7031 76.7406,195.4844 76.2563,195.2031 C75.7875,194.9531 75.1781,194.7969 74.6,194.7969 C72.8656,194.7969 71.6156,196.1094 71.6156,197.8906 L71.6156,198.9844 C71.6156,200.6875 72.9125,201.7813 74.9594,201.7813 C75.725,201.7813 76.4125,201.6563 76.8344,201.3906 C77.0219,201.2969 77.0219,201.2969 77.475,200.8125 C77.6625,200.625 77.8656,200.5469 78.0844,200.5469 C78.5531,200.5469 78.9438,200.9375 78.9438,201.3906 C78.9438,201.7813 78.6156,202.2344 78.0375,202.6406 C77.2875,203.1875 76.1313,203.4844 74.9125,203.4844 C72.0219,203.4844 69.9125,201.5938 69.9125,199.0156 L69.9125,197.8906 C69.9125,195.1719 71.9125,193.0938 74.5375,193.0938 C75.4125,193.0938 76.0063,193.2344 76.9438,193.6719 Z "/><text fill="#000000" font-family="sans-serif" font-size="12" lengthAdjust="spacingAndGlyphs" textLength="76" x="93.4" y="202.1543">_HomeState</text><line style="stroke: #A80036; stroke-width: 1.5;" x1="39" x2="193" y1="214" y2="214"/><rect fill="none" height="6" style="stroke: #C82930; stroke-width: 1.0;" width="6" x="46" y="222"/><text fill="#000000" font-family="sans-serif" font-size="11" lengthAdjust="spacingAndGlyphs" textLength="95" x="58" y="228.2104">int _currentIndex</text><rect fill="none" height="6" style="stroke: #C82930; stroke-width: 1.0;" width="6" x="46" y="234.8047"/><text fill="#000000" font-family="sans-serif" font-size="11" lengthAdjust="spacingAndGlyphs" textLength="130" x="58" y="241.0151">List&lt;Widget&gt; _children</text><line style="stroke: #A80036; stroke-width: 1.5;" x1="39" x2="193" y1="247.6094" y2="247.6094"/><ellipse cx="49" cy="258.6094" fill="#84BE84" rx="3" ry="3" style="stroke: #038048; stroke-width: 1.0;"/><text fill="#000000" font-family="sans-serif" font-size="11" lengthAdjust="spacingAndGlyphs" textLength="76" x="58" y="261.8198">Widget build()</text><ellipse cx="49" cy="271.4141" fill="#84BE84" rx="3" ry="3" style="stroke: #038048; stroke-width: 1.0;"/><text fill="#000000" font-family="sans-serif" font-size="11" lengthAdjust="spacingAndGlyphs" textLength="112" x="58" y="274.6245">void onTabTapped()</text><!--MD5=[aa3f7eeafec522ba9bc8f59b3155082c]
class flutter::src::widgets::framework.dart::StatefulWidget--><rect fill="#FEFECE" filter="url(#fj4ayzmf7v7ov)" height="48" id="flutter::src::widgets::framework.dart::StatefulWidget" style="stroke: #A80036; stroke-width: 1.5;" width="124" x="239" y="59"/><ellipse cx="254" cy="75" fill="#ADD1B2" rx="11" ry="11" style="stroke: #A80036; stroke-width: 1.0;"/><path d="M256.3438,70.6719 L256.5156,70.75 C256.7344,70.4375 256.9375,70.3438 257.2344,70.3438 C257.5313,70.3438 257.8125,70.4844 257.9688,70.75 C258.0625,70.9063 258.0781,71.0313 258.0781,71.4688 L258.0781,72.8906 C258.0781,73.3125 258.0469,73.5 257.9375,73.6563 C257.7656,73.875 257.5,74.0156 257.2344,74.0156 C257.0156,74.0156 256.7813,73.9063 256.6406,73.7656 C256.5,73.6406 256.4688,73.5156 256.4063,73.1094 C256.3125,72.7031 256.1406,72.4844 255.6563,72.2031 C255.1875,71.9531 254.5781,71.7969 254,71.7969 C252.2656,71.7969 251.0156,73.1094 251.0156,74.8906 L251.0156,75.9844 C251.0156,77.6875 252.3125,78.7813 254.3594,78.7813 C255.125,78.7813 255.8125,78.6563 256.2344,78.3906 C256.4219,78.2969 256.4219,78.2969 256.875,77.8125 C257.0625,77.625 257.2656,77.5469 257.4844,77.5469 C257.9531,77.5469 258.3438,77.9375 258.3438,78.3906 C258.3438,78.7813 258.0156,79.2344 257.4375,79.6406 C256.6875,80.1875 255.5313,80.4844 254.3125,80.4844 C251.4219,80.4844 249.3125,78.5938 249.3125,76.0156 L249.3125,74.8906 C249.3125,72.1719 251.3125,70.0938 253.9375,70.0938 C254.8125,70.0938 255.4063,70.2344 256.3438,70.6719 Z "/><text fill="#000000" font-family="sans-serif" font-size="12" lengthAdjust="spacingAndGlyphs" textLength="92" x="268" y="79.1543">StatefulWidget</text><line style="stroke: #A80036; stroke-width: 1.5;" x1="240" x2="362" y1="91" y2="91"/><line style="stroke: #A80036; stroke-width: 1.5;" x1="240" x2="362" y1="99" y2="99"/><!--MD5=[481250324083d5ec2030fffe1fefaea3]
class flutter::src::widgets::framework.dart::State<T>--><rect fill="#FEFECE" filter="url(#fj4ayzmf7v7ov)" height="48" id="flutter::src::widgets::framework.dart::State&lt;T&gt;" style="stroke: #A80036; stroke-width: 1.5;" width="93" x="110.5" y="59"/><ellipse cx="125.5" cy="75" fill="#ADD1B2" rx="11" ry="11" style="stroke: #A80036; stroke-width: 1.0;"/><path d="M127.8438,70.6719 L128.0156,70.75 C128.2344,70.4375 128.4375,70.3438 128.7344,70.3438 C129.0313,70.3438 129.3125,70.4844 129.4688,70.75 C129.5625,70.9063 129.5781,71.0313 129.5781,71.4688 L129.5781,72.8906 C129.5781,73.3125 129.5469,73.5 129.4375,73.6563 C129.2656,73.875 129,74.0156 128.7344,74.0156 C128.5156,74.0156 128.2813,73.9063 128.1406,73.7656 C128,73.6406 127.9688,73.5156 127.9063,73.1094 C127.8125,72.7031 127.6406,72.4844 127.1563,72.2031 C126.6875,71.9531 126.0781,71.7969 125.5,71.7969 C123.7656,71.7969 122.5156,73.1094 122.5156,74.8906 L122.5156,75.9844 C122.5156,77.6875 123.8125,78.7813 125.8594,78.7813 C126.625,78.7813 127.3125,78.6563 127.7344,78.3906 C127.9219,78.2969 127.9219,78.2969 128.375,77.8125 C128.5625,77.625 128.7656,77.5469 128.9844,77.5469 C129.4531,77.5469 129.8438,77.9375 129.8438,78.3906 C129.8438,78.7813 129.5156,79.2344 128.9375,79.6406 C128.1875,80.1875 127.0313,80.4844 125.8125,80.4844 C122.9219,80.4844 120.8125,78.5938 120.8125,76.0156 L120.8125,74.8906 C120.8125,72.1719 122.8125,70.0938 125.4375,70.0938 C126.3125,70.0938 126.9063,70.2344 127.8438,70.6719 Z "/><text fill="#000000" font-family="sans-serif" font-size="12" lengthAdjust="spacingAndGlyphs" textLength="61" x="139.5" y="79.1543">State&lt;T&gt;</text><line style="stroke: #A80036; stroke-width: 1.5;" x1="111.5" x2="202.5" y1="91" y2="91"/><line style="stroke: #A80036; stroke-width: 1.5;" x1="111.5" x2="202.5" y1="99" y2="99"/><!--MD5=[efc9ff8382eabd0f0b822d1be18a98a9]
class flutter::src::widgets::framework.dart::StatelessWidget--><rect fill="#FEFECE" filter="url(#fj4ayzmf7v7ov)" height="48" id="flutter::src::widgets::framework.dart::StatelessWidget" style="stroke: #A80036; stroke-width: 1.5;" width="134" x="398" y="59"/><ellipse cx="413" cy="75" fill="#ADD1B2" rx="11" ry="11" style="stroke: #A80036; stroke-width: 1.0;"/><path d="M415.3438,70.6719 L415.5156,70.75 C415.7344,70.4375 415.9375,70.3438 416.2344,70.3438 C416.5313,70.3438 416.8125,70.4844 416.9688,70.75 C417.0625,70.9063 417.0781,71.0313 417.0781,71.4688 L417.0781,72.8906 C417.0781,73.3125 417.0469,73.5 416.9375,73.6563 C416.7656,73.875 416.5,74.0156 416.2344,74.0156 C416.0156,74.0156 415.7813,73.9063 415.6406,73.7656 C415.5,73.6406 415.4688,73.5156 415.4063,73.1094 C415.3125,72.7031 415.1406,72.4844 414.6563,72.2031 C414.1875,71.9531 413.5781,71.7969 413,71.7969 C411.2656,71.7969 410.0156,73.1094 410.0156,74.8906 L410.0156,75.9844 C410.0156,77.6875 411.3125,78.7813 413.3594,78.7813 C414.125,78.7813 414.8125,78.6563 415.2344,78.3906 C415.4219,78.2969 415.4219,78.2969 415.875,77.8125 C416.0625,77.625 416.2656,77.5469 416.4844,77.5469 C416.9531,77.5469 417.3438,77.9375 417.3438,78.3906 C417.3438,78.7813 417.0156,79.2344 416.4375,79.6406 C415.6875,80.1875 414.5313,80.4844 413.3125,80.4844 C410.4219,80.4844 408.3125,78.5938 408.3125,76.0156 L408.3125,74.8906 C408.3125,72.1719 410.3125,70.0938 412.9375,70.0938 C413.8125,70.0938 414.4063,70.2344 415.3438,70.6719 Z "/><text fill="#000000" font-family="sans-serif" font-size="12" lengthAdjust="spacingAndGlyphs" textLength="102" x="427" y="79.1543">StatelessWidget</text><line style="stroke: #A80036; stroke-width: 1.5;" x1="399" x2="531" y1="91" y2="91"/><line style="stroke: #A80036; stroke-width: 1.5;" x1="399" x2="531" y1="99" y2="99"/><!--MD5=[71a7d002d5a308ae4d30e0b9e54fecb1]
class ef::main.dart::App--><rect fill="#FEFECE" filter="url(#fj4ayzmf7v7ov)" height="60.8047" id="ef::main.dart::App" style="stroke: #A80036; stroke-width: 1.5;" width="102" x="419" y="201"/><ellipse cx="454.7" cy="217" fill="#ADD1B2" rx="11" ry="11" style="stroke: #A80036; stroke-width: 1.0;"/><path d="M457.0438,212.6719 L457.2156,212.75 C457.4344,212.4375 457.6375,212.3438 457.9344,212.3438 C458.2313,212.3438 458.5125,212.4844 458.6688,212.75 C458.7625,212.9063 458.7781,213.0313 458.7781,213.4688 L458.7781,214.8906 C458.7781,215.3125 458.7469,215.5 458.6375,215.6563 C458.4656,215.875 458.2,216.0156 457.9344,216.0156 C457.7156,216.0156 457.4813,215.9063 457.3406,215.7656 C457.2,215.6406 457.1688,215.5156 457.1063,215.1094 C457.0125,214.7031 456.8406,214.4844 456.3563,214.2031 C455.8875,213.9531 455.2781,213.7969 454.7,213.7969 C452.9656,213.7969 451.7156,215.1094 451.7156,216.8906 L451.7156,217.9844 C451.7156,219.6875 453.0125,220.7813 455.0594,220.7813 C455.825,220.7813 456.5125,220.6563 456.9344,220.3906 C457.1219,220.2969 457.1219,220.2969 457.575,219.8125 C457.7625,219.625 457.9656,219.5469 458.1844,219.5469 C458.6531,219.5469 459.0438,219.9375 459.0438,220.3906 C459.0438,220.7813 458.7156,221.2344 458.1375,221.6406 C457.3875,222.1875 456.2313,222.4844 455.0125,222.4844 C452.1219,222.4844 450.0125,220.5938 450.0125,218.0156 L450.0125,216.8906 C450.0125,214.1719 452.0125,212.0938 454.6375,212.0938 C455.5125,212.0938 456.1063,212.2344 457.0438,212.6719 Z "/><text fill="#000000" font-family="sans-serif" font-size="12" lengthAdjust="spacingAndGlyphs" textLength="24" x="473.3" y="221.1543">App</text><line style="stroke: #A80036; stroke-width: 1.5;" x1="420" x2="520" y1="233" y2="233"/><line style="stroke: #A80036; stroke-width: 1.5;" x1="420" x2="520" y1="241" y2="241"/><ellipse cx="430" cy="252" fill="#84BE84" rx="3" ry="3" style="stroke: #038048; stroke-width: 1.0;"/><text fill="#000000" font-family="sans-serif" font-size="11" lengthAdjust="spacingAndGlyphs" textLength="76" x="439" y="255.2104">Widget build()</text><!--MD5=[cbcc00817dd62b99ce7991bcca9c6547]
class ef::placeholder_widget.dart::PlaceholderWidget--><rect fill="#FEFECE" filter="url(#fj4ayzmf7v7ov)" height="73.6094" id="ef::placeholder_widget.dart::PlaceholderWidget" style="stroke: #A80036; stroke-width: 1.5;" width="149" x="577.5" y="194.5"/><ellipse cx="592.5" cy="210.5" fill="#ADD1B2" rx="11" ry="11" style="stroke: #A80036; stroke-width: 1.0;"/><path d="M594.8438,206.1719 L595.0156,206.25 C595.2344,205.9375 595.4375,205.8438 595.7344,205.8438 C596.0313,205.8438 596.3125,205.9844 596.4688,206.25 C596.5625,206.4063 596.5781,206.5313 596.5781,206.9688 L596.5781,208.3906 C596.5781,208.8125 596.5469,209 596.4375,209.1563 C596.2656,209.375 596,209.5156 595.7344,209.5156 C595.5156,209.5156 595.2813,209.4063 595.1406,209.2656 C595,209.1406 594.9688,209.0156 594.9063,208.6094 C594.8125,208.2031 594.6406,207.9844 594.1563,207.7031 C593.6875,207.4531 593.0781,207.2969 592.5,207.2969 C590.7656,207.2969 589.5156,208.6094 589.5156,210.3906 L589.5156,211.4844 C589.5156,213.1875 590.8125,214.2813 592.8594,214.2813 C593.625,214.2813 594.3125,214.1563 594.7344,213.8906 C594.9219,213.7969 594.9219,213.7969 595.375,213.3125 C595.5625,213.125 595.7656,213.0469 595.9844,213.0469 C596.4531,213.0469 596.8438,213.4375 596.8438,213.8906 C596.8438,214.2813 596.5156,214.7344 595.9375,215.1406 C595.1875,215.6875 594.0313,215.9844 592.8125,215.9844 C589.9219,215.9844 587.8125,214.0938 587.8125,211.5156 L587.8125,210.3906 C587.8125,207.6719 589.8125,205.5938 592.4375,205.5938 C593.3125,205.5938 593.9063,205.7344 594.8438,206.1719 Z "/><text fill="#000000" font-family="sans-serif" font-size="12" lengthAdjust="spacingAndGlyphs" textLength="117" x="606.5" y="214.6543">PlaceholderWidget</text><line style="stroke: #A80036; stroke-width: 1.5;" x1="578.5" x2="725.5" y1="226.5" y2="226.5"/><ellipse cx="588.5" cy="237.5" fill="none" rx="3" ry="3" style="stroke: #038048; stroke-width: 1.0;"/><text fill="#000000" font-family="sans-serif" font-size="11" lengthAdjust="spacingAndGlyphs" textLength="62" x="597.5" y="240.7104">Color color</text><line style="stroke: #A80036; stroke-width: 1.5;" x1="578.5" x2="725.5" y1="247.3047" y2="247.3047"/><ellipse cx="588.5" cy="258.3047" fill="#84BE84" rx="3" ry="3" style="stroke: #038048; stroke-width: 1.0;"/><text fill="#000000" font-family="sans-serif" font-size="11" lengthAdjust="spacingAndGlyphs" textLength="76" x="597.5" y="261.5151">Widget build()</text><!--MD5=[7ee8008bd02dd47c47fead127d6fe347]
class dart::ui::Color--><rect fill="#FEFECE" filter="url(#fj4ayzmf7v7ov)" height="48" id="dart::ui::Color" style="stroke: #A80036; stroke-width: 1.5;" width="64" x="620" y="356"/><ellipse cx="635" cy="372" fill="#ADD1B2" rx="11" ry="11" style="stroke: #A80036; stroke-width: 1.0;"/><path d="M637.3438,367.6719 L637.5156,367.75 C637.7344,367.4375 637.9375,367.3438 638.2344,367.3438 C638.5313,367.3438 638.8125,367.4844 638.9688,367.75 C639.0625,367.9063 639.0781,368.0313 639.0781,368.4688 L639.0781,369.8906 C639.0781,370.3125 639.0469,370.5 638.9375,370.6563 C638.7656,370.875 638.5,371.0156 638.2344,371.0156 C638.0156,371.0156 637.7813,370.9063 637.6406,370.7656 C637.5,370.6406 637.4688,370.5156 637.4063,370.1094 C637.3125,369.7031 637.1406,369.4844 636.6563,369.2031 C636.1875,368.9531 635.5781,368.7969 635,368.7969 C633.2656,368.7969 632.0156,370.1094 632.0156,371.8906 L632.0156,372.9844 C632.0156,374.6875 633.3125,375.7813 635.3594,375.7813 C636.125,375.7813 636.8125,375.6563 637.2344,375.3906 C637.4219,375.2969 637.4219,375.2969 637.875,374.8125 C638.0625,374.625 638.2656,374.5469 638.4844,374.5469 C638.9531,374.5469 639.3438,374.9375 639.3438,375.3906 C639.3438,375.7813 639.0156,376.2344 638.4375,376.6406 C637.6875,377.1875 636.5313,377.4844 635.3125,377.4844 C632.4219,377.4844 630.3125,375.5938 630.3125,373.0156 L630.3125,371.8906 C630.3125,369.1719 632.3125,367.0938 634.9375,367.0938 C635.8125,367.0938 636.4063,367.2344 637.3438,367.6719 Z "/><text fill="#000000" font-family="sans-serif" font-size="12" lengthAdjust="spacingAndGlyphs" textLength="32" x="649" y="376.1543">Color</text><line style="stroke: #A80036; stroke-width: 1.5;" x1="621" x2="683" y1="388" y2="388"/><line style="stroke: #A80036; stroke-width: 1.5;" x1="621" x2="683" y1="396" y2="396"/><!--MD5=[77cc0eb482193efbabfaa5c21ec4c456]
reverse link flutter::src::widgets::framework.dart::StatefulWidget to ef::home_widget.dart::Home--><path d="M299.514,127.546 C298.707,151.172 297.732,179.763 297.013,200.814 " fill="none" id="flutter::src::widgets::framework.dart::StatefulWidget&lt;-ef::home_widget.dart::Home" style="stroke: #A80036; stroke-width: 1.0;"/><polygon fill="none" points="292.53,126.963,300.208,107.213,306.521,127.441,292.53,126.963" style="stroke: #A80036; stroke-width: 1.0;"/><!--MD5=[1409b9642ab966c03e7eecea76d095a3]
reverse link flutter::src::widgets::framework.dart::State<T> to ef::home_widget.dart::_HomeState--><path d="M145.072,126.62 C140.225,143.939 134.599,164.044 129.594,181.927 " fill="none" id="flutter::src::widgets::framework.dart::State&lt;T&gt;&lt;-ef::home_widget.dart::_HomeState" style="stroke: #A80036; stroke-width: 1.0;"/><polygon fill="none" points="138.372,124.587,150.503,107.213,151.854,128.36,138.372,124.587" style="stroke: #A80036; stroke-width: 1.0;"/><!--MD5=[5834867da250a7b19e3ed252b5877692]
reverse link flutter::src::widgets::framework.dart::StatelessWidget to ef::main.dart::App--><path d="M466.486,127.546 C467.293,151.172 468.268,179.763 468.987,200.814 " fill="none" id="flutter::src::widgets::framework.dart::StatelessWidget&lt;-ef::main.dart::App" style="stroke: #A80036; stroke-width: 1.0;"/><polygon fill="none" points="459.479,127.441,465.792,107.213,473.47,126.963,459.479,127.441" style="stroke: #A80036; stroke-width: 1.0;"/><!--MD5=[65f96d14f55c8ce3566cc7b87f4a878f]
reverse link ef::placeholder_widget.dart::PlaceholderWidget to dart::ui::Color--><path d="M652,281.751 C652,306.839 652,336.1484 652,355.981 " fill="none" id="ef::placeholder_widget.dart::PlaceholderWidget&lt;-dart::ui::Color" style="stroke: #A80036; stroke-width: 1.0;"/><polygon fill="#FFFFFF" points="652,268.713,648,274.713,652,280.713,656,274.713,652,268.713" style="stroke: #A80036; stroke-width: 1.0;"/><!--MD5=[7f007075de228c6c23932ad40a88d079]
reverse link flutter::src::widgets::framework.dart::StatelessWidget to ef::placeholder_widget.dart::PlaceholderWidget--><path d="M511.747,119.496 C520.175,125.957 528.866,132.658 537,139 C560.24,157.119 585.918,177.514 607.104,194.443 " fill="none" id="flutter::src::widgets::framework.dart::StatelessWidget&lt;-ef::placeholder_widget.dart::PlaceholderWidget" style="stroke: #A80036; stroke-width: 1.0;"/><polygon fill="none" points="507.227,124.853,495.581,107.15,515.725,113.727,507.227,124.853" style="stroke: #A80036; stroke-width: 1.0;"/><!--MD5=[2fd67bca75c9635b7dd17f38ce60b5d3]
@startuml
set namespaceSeparator ::

class "ef::home_widget.dart::Home" {
  +State createState()
}

"flutter::src::widgets::framework.dart::StatefulWidget" <|- - "ef::home_widget.dart::Home"

class "ef::home_widget.dart::_HomeState" {
  -int _currentIndex
  -List<Widget> _children
  +Widget build()
  +void onTabTapped()
}

"flutter::src::widgets::framework.dart::State<T>" <|- - "ef::home_widget.dart::_HomeState"

class "ef::main.dart::App" {
  +Widget build()
}

"flutter::src::widgets::framework.dart::StatelessWidget" <|- - "ef::main.dart::App"

class "ef::placeholder_widget.dart::PlaceholderWidget" {
  +Color color
  +Widget build()
}

"ef::placeholder_widget.dart::PlaceholderWidget" o- - "dart::ui::Color"
"flutter::src::widgets::framework.dart::StatelessWidget" <|- - "ef::placeholder_widget.dart::PlaceholderWidget"
@enduml

PlantUML version 1.2019.12(Sun Nov 03 10:24:54 UTC 2019)
(GPL source distribution)
Java Runtime: Java(TM) SE Runtime Environment
JVM: Java HotSpot(TM) 64-Bit Server VM
Java Version: 1.7.0_25-b15
Operating System: Linux
Default Encoding: UTF-8
Language: en
Country: US
--></g></svg>