<?xml version="1.0" encoding="UTF-8" standalone="no"?><svg xmlns="http://www.w3.org/2000/svg" xmlns:xlink="http://www.w3.org/1999/xlink" contentScriptType="application/ecmascript" contentStyleType="text/css" height="458px" preserveAspectRatio="none" style="width:2367px;height:458px;" version="1.1" viewBox="0 0 2367 458" width="2367px" zoomAndPan="magnify"><defs><filter height="300%" id="fzm6xwopqn8uh" width="300%" x="-1" y="-1"><feGaussianBlur result="blurOut" stdDeviation="2.0"/><feColorMatrix in="blurOut" result="blurOut2" type="matrix" values="0 0 0 0 0 0 0 0 0 0 0 0 0 0 0 0 0 0 .4 0"/><feOffset dx="4.0" dy="4.0" in="blurOut2" result="blurOut3"/><feBlend in="SourceGraphic" in2="blurOut3" mode="normal"/></filter></defs><g><!--MD5=[a5f6905c21e61fa3d7f04e9506349add]
cluster ef::diagrams_widget.dart--><polygon fill="#FFFFFF" filter="url(#fzm6xwopqn8uh)" points="22,147,226,147,233,169.2969,1046,169.2969,1046,323,22,323,22,147" style="stroke: #000000; stroke-width: 1.5;"/><line style="stroke: #000000; stroke-width: 1.5;" x1="22" x2="233" y1="169.2969" y2="169.2969"/><text fill="#000000" font-family="sans-serif" font-size="14" font-weight="bold" lengthAdjust="spacingAndGlyphs" textLength="198" x="26" y="161.9951">ef::diagrams_widget.dart</text><!--MD5=[1b91236ccc4e258431d00b8b19fdf6ca]
cluster flutter::src::widgets::framework.dart--><polygon fill="#FFFFFF" filter="url(#fzm6xwopqn8uh)" points="1000,24,1302,24,1309,46.2969,1565,46.2969,1565,123,1000,123,1000,24" style="stroke: #000000; stroke-width: 1.5;"/><line style="stroke: #000000; stroke-width: 1.5;" x1="1000" x2="1309" y1="46.2969" y2="46.2969"/><text fill="#000000" font-family="sans-serif" font-size="14" font-weight="bold" lengthAdjust="spacingAndGlyphs" textLength="296" x="1004" y="38.9951">flutter::src::widgets::framework.dart</text><!--MD5=[38be18612ed71996bdf82b0e8a8b954f]
cluster dart::ui--><polygon fill="#FFFFFF" filter="url(#fzm6xwopqn8uh)" points="1652,347,1716,347,1723,369.2969,1748,369.2969,1748,446,1652,446,1652,347" style="stroke: #000000; stroke-width: 1.5;"/><line style="stroke: #000000; stroke-width: 1.5;" x1="1652" x2="1723" y1="369.2969" y2="369.2969"/><text fill="#000000" font-family="sans-serif" font-size="14" font-weight="bold" lengthAdjust="spacingAndGlyphs" textLength="58" x="1656" y="361.9951">dart::ui</text><!--MD5=[ed71fae42bdba8b5458e919670e9e809]
cluster ef::home_widget.dart--><polygon fill="#FFFFFF" filter="url(#fzm6xwopqn8uh)" points="1070,160,1246,160,1253,182.2969,1427,182.2969,1427,310,1070,310,1070,160" style="stroke: #000000; stroke-width: 1.5;"/><line style="stroke: #000000; stroke-width: 1.5;" x1="1070" x2="1253" y1="182.2969" y2="182.2969"/><text fill="#000000" font-family="sans-serif" font-size="14" font-weight="bold" lengthAdjust="spacingAndGlyphs" textLength="170" x="1074" y="174.9951">ef::home_widget.dart</text><!--MD5=[0b40f7742e4a98bcb4b901aac30e186f]
cluster ef::main.dart--><polygon fill="#FFFFFF" filter="url(#fzm6xwopqn8uh)" points="1451,179,1559,179,1566,201.2969,1585,201.2969,1585,291,1451,291,1451,179" style="stroke: #000000; stroke-width: 1.5;"/><line style="stroke: #000000; stroke-width: 1.5;" x1="1451" x2="1566" y1="201.2969" y2="201.2969"/><text fill="#000000" font-family="sans-serif" font-size="14" font-weight="bold" lengthAdjust="spacingAndGlyphs" textLength="102" x="1455" y="193.9951">ef::main.dart</text><!--MD5=[792b9c557eb22a988f19e6c16cd92899]
cluster ef::placeholder_widget.dart--><polygon fill="#FFFFFF" filter="url(#fzm6xwopqn8uh)" points="1609,172.5,1834,172.5,1841,194.7969,1844,194.7969,1844,297.5,1609,297.5,1609,172.5" style="stroke: #000000; stroke-width: 1.5;"/><line style="stroke: #000000; stroke-width: 1.5;" x1="1609" x2="1841" y1="194.7969" y2="194.7969"/><text fill="#000000" font-family="sans-serif" font-size="14" font-weight="bold" lengthAdjust="spacingAndGlyphs" textLength="219" x="1613" y="187.4951">ef::placeholder_widget.dart</text><!--MD5=[2681f0fb4948b3ab09a285efc21c8a1e]
cluster ef::settings::container.dart--><polygon fill="#FFFFFF" filter="url(#fzm6xwopqn8uh)" points="1868,172.5,2090,172.5,2097,194.7969,2100,194.7969,2100,297.5,1868,297.5,1868,172.5" style="stroke: #000000; stroke-width: 1.5;"/><line style="stroke: #000000; stroke-width: 1.5;" x1="1868" x2="2097" y1="194.7969" y2="194.7969"/><text fill="#000000" font-family="sans-serif" font-size="14" font-weight="bold" lengthAdjust="spacingAndGlyphs" textLength="216" x="1872" y="187.4951">ef::settings::container.dart</text><!--MD5=[cb92ed5db64729614409011430f5543c]
cluster ef::settings::settings.dart--><polygon fill="#FFFFFF" filter="url(#fzm6xwopqn8uh)" points="2124,179,2335,179,2342,201.2969,2345,201.2969,2345,291,2124,291,2124,179" style="stroke: #000000; stroke-width: 1.5;"/><line style="stroke: #000000; stroke-width: 1.5;" x1="2124" x2="2342" y1="201.2969" y2="201.2969"/><text fill="#000000" font-family="sans-serif" font-size="14" font-weight="bold" lengthAdjust="spacingAndGlyphs" textLength="205" x="2128" y="193.9951">ef::settings::settings.dart</text><!--MD5=[eb30425fe11edc1c952f6f8bdb8e204e]
class ef::diagrams_widget.dart::DiagramPage--><rect fill="#FEFECE" filter="url(#fzm6xwopqn8uh)" height="73.6094" id="ef::diagrams_widget.dart::DiagramPage" style="stroke: #A80036; stroke-width: 1.5;" width="216" x="471" y="207.5"/><ellipse cx="532.75" cy="223.5" fill="#ADD1B2" rx="11" ry="11" style="stroke: #A80036; stroke-width: 1.0;"/><path d="M535.0938,219.1719 L535.2656,219.25 C535.4844,218.9375 535.6875,218.8438 535.9844,218.8438 C536.2813,218.8438 536.5625,218.9844 536.7188,219.25 C536.8125,219.4063 536.8281,219.5313 536.8281,219.9688 L536.8281,221.3906 C536.8281,221.8125 536.7969,222 536.6875,222.1563 C536.5156,222.375 536.25,222.5156 535.9844,222.5156 C535.7656,222.5156 535.5313,222.4063 535.3906,222.2656 C535.25,222.1406 535.2188,222.0156 535.1563,221.6094 C535.0625,221.2031 534.8906,220.9844 534.4063,220.7031 C533.9375,220.4531 533.3281,220.2969 532.75,220.2969 C531.0156,220.2969 529.7656,221.6094 529.7656,223.3906 L529.7656,224.4844 C529.7656,226.1875 531.0625,227.2813 533.1094,227.2813 C533.875,227.2813 534.5625,227.1563 534.9844,226.8906 C535.1719,226.7969 535.1719,226.7969 535.625,226.3125 C535.8125,226.125 536.0156,226.0469 536.2344,226.0469 C536.7031,226.0469 537.0938,226.4375 537.0938,226.8906 C537.0938,227.2813 536.7656,227.7344 536.1875,228.1406 C535.4375,228.6875 534.2813,228.9844 533.0625,228.9844 C530.1719,228.9844 528.0625,227.0938 528.0625,224.5156 L528.0625,223.3906 C528.0625,220.6719 530.0625,218.5938 532.6875,218.5938 C533.5625,218.5938 534.1563,218.7344 535.0938,219.1719 Z "/><text fill="#000000" font-family="sans-serif" font-size="12" lengthAdjust="spacingAndGlyphs" textLength="84" x="553.25" y="227.6543">DiagramPage</text><line style="stroke: #A80036; stroke-width: 1.5;" x1="472" x2="686" y1="239.5" y2="239.5"/><ellipse cx="482" cy="250.5" fill="none" rx="3" ry="3" style="stroke: #038048; stroke-width: 1.0;"/><text fill="#000000" font-family="sans-serif" font-size="11" lengthAdjust="spacingAndGlyphs" textLength="67" x="491" y="253.7104">Widget child</text><line style="stroke: #A80036; stroke-width: 1.5;" x1="472" x2="686" y1="260.3047" y2="260.3047"/><ellipse cx="482" cy="271.3047" fill="#84BE84" rx="3" ry="3" style="stroke: #038048; stroke-width: 1.0;"/><text fill="#000000" font-family="sans-serif" font-size="11" lengthAdjust="spacingAndGlyphs" textLength="190" x="491" y="274.5151">_DiagramPageState createState()</text><!--MD5=[59d634695f766486068bfa28c4103abd]
class ef::diagrams_widget.dart::_DiagramPageState--><rect fill="#FEFECE" filter="url(#fzm6xwopqn8uh)" height="124.8281" id="ef::diagrams_widget.dart::_DiagramPageState" style="stroke: #A80036; stroke-width: 1.5;" width="307" x="722.5" y="182"/><ellipse cx="809.75" cy="198" fill="#ADD1B2" rx="11" ry="11" style="stroke: #A80036; stroke-width: 1.0;"/><path d="M812.0938,193.6719 L812.2656,193.75 C812.4844,193.4375 812.6875,193.3438 812.9844,193.3438 C813.2813,193.3438 813.5625,193.4844 813.7188,193.75 C813.8125,193.9063 813.8281,194.0313 813.8281,194.4688 L813.8281,195.8906 C813.8281,196.3125 813.7969,196.5 813.6875,196.6563 C813.5156,196.875 813.25,197.0156 812.9844,197.0156 C812.7656,197.0156 812.5313,196.9063 812.3906,196.7656 C812.25,196.6406 812.2188,196.5156 812.1563,196.1094 C812.0625,195.7031 811.8906,195.4844 811.4063,195.2031 C810.9375,194.9531 810.3281,194.7969 809.75,194.7969 C808.0156,194.7969 806.7656,196.1094 806.7656,197.8906 L806.7656,198.9844 C806.7656,200.6875 808.0625,201.7813 810.1094,201.7813 C810.875,201.7813 811.5625,201.6563 811.9844,201.3906 C812.1719,201.2969 812.1719,201.2969 812.625,200.8125 C812.8125,200.625 813.0156,200.5469 813.2344,200.5469 C813.7031,200.5469 814.0938,200.9375 814.0938,201.3906 C814.0938,201.7813 813.7656,202.2344 813.1875,202.6406 C812.4375,203.1875 811.2813,203.4844 810.0625,203.4844 C807.1719,203.4844 805.0625,201.5938 805.0625,199.0156 L805.0625,197.8906 C805.0625,195.1719 807.0625,193.0938 809.6875,193.0938 C810.5625,193.0938 811.1563,193.2344 812.0938,193.6719 Z "/><text fill="#000000" font-family="sans-serif" font-size="12" lengthAdjust="spacingAndGlyphs" textLength="124" x="830.25" y="202.1543">_DiagramPageState</text><line style="stroke: #A80036; stroke-width: 1.5;" x1="723.5" x2="1028.5" y1="214" y2="214"/><rect fill="none" height="6" style="stroke: #C82930; stroke-width: 1.0;" width="6" x="730.5" y="222"/><text fill="#000000" font-family="sans-serif" font-size="11" lengthAdjust="spacingAndGlyphs" textLength="281" x="742.5" y="228.2104">List&lt;Series&lt;SolidBarData, String&gt;&gt; _seriesData</text><rect fill="none" height="6" style="stroke: #C82930; stroke-width: 1.0;" width="6" x="730.5" y="234.8047"/><text fill="#000000" font-family="sans-serif" font-size="11" lengthAdjust="spacingAndGlyphs" textLength="251" x="742.5" y="241.0151">List&lt;Series&lt;Task, String&gt;&gt; _seriesPieData</text><rect fill="none" height="6" style="stroke: #C82930; stroke-width: 1.0;" width="6" x="730.5" y="247.6094"/><text fill="#000000" font-family="sans-serif" font-size="11" lengthAdjust="spacingAndGlyphs" textLength="242" x="742.5" y="253.8198">List&lt;Series&lt;Sales, int&gt;&gt; _seriesLineData</text><line style="stroke: #A80036; stroke-width: 1.5;" x1="723.5" x2="1028.5" y1="260.4141" y2="260.4141"/><rect fill="#F24D5C" height="6" style="stroke: #C82930; stroke-width: 1.0;" width="6" x="730.5" y="268.4141"/><text fill="#000000" font-family="sans-serif" font-size="11" lengthAdjust="spacingAndGlyphs" textLength="142" x="742.5" y="274.6245">dynamic _generateData()</text><ellipse cx="733.5" cy="284.2188" fill="#84BE84" rx="3" ry="3" style="stroke: #038048; stroke-width: 1.0;"/><text fill="#000000" font-family="sans-serif" font-size="11" lengthAdjust="spacingAndGlyphs" textLength="82" x="742.5" y="287.4292">void initState()</text><ellipse cx="733.5" cy="297.0234" fill="#84BE84" rx="3" ry="3" style="stroke: #038048; stroke-width: 1.0;"/><text fill="#000000" font-family="sans-serif" font-size="11" lengthAdjust="spacingAndGlyphs" textLength="76" x="742.5" y="300.2339">Widget build()</text><!--MD5=[83acc17a1a2fbb3aaed8e0a51cafb7dd]
class ef::diagrams_widget.dart::SolidBarData--><rect fill="#FEFECE" filter="url(#fzm6xwopqn8uh)" height="86.4141" id="ef::diagrams_widget.dart::SolidBarData" style="stroke: #A80036; stroke-width: 1.5;" width="113" x="322.5" y="201.5"/><ellipse cx="337.5" cy="217.5" fill="#ADD1B2" rx="11" ry="11" style="stroke: #A80036; stroke-width: 1.0;"/><path d="M339.8438,213.1719 L340.0156,213.25 C340.2344,212.9375 340.4375,212.8438 340.7344,212.8438 C341.0313,212.8438 341.3125,212.9844 341.4688,213.25 C341.5625,213.4063 341.5781,213.5313 341.5781,213.9688 L341.5781,215.3906 C341.5781,215.8125 341.5469,216 341.4375,216.1563 C341.2656,216.375 341,216.5156 340.7344,216.5156 C340.5156,216.5156 340.2813,216.4063 340.1406,216.2656 C340,216.1406 339.9688,216.0156 339.9063,215.6094 C339.8125,215.2031 339.6406,214.9844 339.1563,214.7031 C338.6875,214.4531 338.0781,214.2969 337.5,214.2969 C335.7656,214.2969 334.5156,215.6094 334.5156,217.3906 L334.5156,218.4844 C334.5156,220.1875 335.8125,221.2813 337.8594,221.2813 C338.625,221.2813 339.3125,221.1563 339.7344,220.8906 C339.9219,220.7969 339.9219,220.7969 340.375,220.3125 C340.5625,220.125 340.7656,220.0469 340.9844,220.0469 C341.4531,220.0469 341.8438,220.4375 341.8438,220.8906 C341.8438,221.2813 341.5156,221.7344 340.9375,222.1406 C340.1875,222.6875 339.0313,222.9844 337.8125,222.9844 C334.9219,222.9844 332.8125,221.0938 332.8125,218.5156 L332.8125,217.3906 C332.8125,214.6719 334.8125,212.5938 337.4375,212.5938 C338.3125,212.5938 338.9063,212.7344 339.8438,213.1719 Z "/><text fill="#000000" font-family="sans-serif" font-size="12" lengthAdjust="spacingAndGlyphs" textLength="81" x="351.5" y="221.6543">SolidBarData</text><line style="stroke: #A80036; stroke-width: 1.5;" x1="323.5" x2="434.5" y1="233.5" y2="233.5"/><ellipse cx="333.5" cy="244.5" fill="none" rx="3" ry="3" style="stroke: #038048; stroke-width: 1.0;"/><text fill="#000000" font-family="sans-serif" font-size="11" lengthAdjust="spacingAndGlyphs" textLength="73" x="342.5" y="247.7104">String usage</text><ellipse cx="333.5" cy="257.3047" fill="none" rx="3" ry="3" style="stroke: #038048; stroke-width: 1.0;"/><text fill="#000000" font-family="sans-serif" font-size="11" lengthAdjust="spacingAndGlyphs" textLength="54" x="342.5" y="260.5151">int month</text><ellipse cx="333.5" cy="270.1094" fill="none" rx="3" ry="3" style="stroke: #038048; stroke-width: 1.0;"/><text fill="#000000" font-family="sans-serif" font-size="11" lengthAdjust="spacingAndGlyphs" textLength="63" x="342.5" y="273.3198">int quantity</text><line style="stroke: #A80036; stroke-width: 1.5;" x1="323.5" x2="434.5" y1="279.9141" y2="279.9141"/><!--MD5=[543b1aa595a924db5e621ba2b47c8f4b]
class ef::diagrams_widget.dart::Task--><rect fill="#FEFECE" filter="url(#fzm6xwopqn8uh)" height="86.4141" id="ef::diagrams_widget.dart::Task" style="stroke: #A80036; stroke-width: 1.5;" width="122" x="165" y="201.5"/><ellipse cx="207.45" cy="217.5" fill="#ADD1B2" rx="11" ry="11" style="stroke: #A80036; stroke-width: 1.0;"/><path d="M209.7938,213.1719 L209.9656,213.25 C210.1844,212.9375 210.3875,212.8438 210.6844,212.8438 C210.9813,212.8438 211.2625,212.9844 211.4188,213.25 C211.5125,213.4063 211.5281,213.5313 211.5281,213.9688 L211.5281,215.3906 C211.5281,215.8125 211.4969,216 211.3875,216.1563 C211.2156,216.375 210.95,216.5156 210.6844,216.5156 C210.4656,216.5156 210.2313,216.4063 210.0906,216.2656 C209.95,216.1406 209.9188,216.0156 209.8563,215.6094 C209.7625,215.2031 209.5906,214.9844 209.1063,214.7031 C208.6375,214.4531 208.0281,214.2969 207.45,214.2969 C205.7156,214.2969 204.4656,215.6094 204.4656,217.3906 L204.4656,218.4844 C204.4656,220.1875 205.7625,221.2813 207.8094,221.2813 C208.575,221.2813 209.2625,221.1563 209.6844,220.8906 C209.8719,220.7969 209.8719,220.7969 210.325,220.3125 C210.5125,220.125 210.7156,220.0469 210.9344,220.0469 C211.4031,220.0469 211.7938,220.4375 211.7938,220.8906 C211.7938,221.2813 211.4656,221.7344 210.8875,222.1406 C210.1375,222.6875 208.9813,222.9844 207.7625,222.9844 C204.8719,222.9844 202.7625,221.0938 202.7625,218.5156 L202.7625,217.3906 C202.7625,214.6719 204.7625,212.5938 207.3875,212.5938 C208.2625,212.5938 208.8563,212.7344 209.7938,213.1719 Z "/><text fill="#000000" font-family="sans-serif" font-size="12" lengthAdjust="spacingAndGlyphs" textLength="29" x="227.55" y="221.6543">Task</text><line style="stroke: #A80036; stroke-width: 1.5;" x1="166" x2="286" y1="233.5" y2="233.5"/><ellipse cx="176" cy="244.5" fill="none" rx="3" ry="3" style="stroke: #038048; stroke-width: 1.0;"/><text fill="#000000" font-family="sans-serif" font-size="11" lengthAdjust="spacingAndGlyphs" textLength="62" x="185" y="247.7104">String task</text><ellipse cx="176" cy="257.3047" fill="none" rx="3" ry="3" style="stroke: #038048; stroke-width: 1.0;"/><text fill="#000000" font-family="sans-serif" font-size="11" lengthAdjust="spacingAndGlyphs" textLength="96" x="185" y="260.5151">double taskvalue</text><ellipse cx="176" cy="270.1094" fill="none" rx="3" ry="3" style="stroke: #038048; stroke-width: 1.0;"/><text fill="#000000" font-family="sans-serif" font-size="11" lengthAdjust="spacingAndGlyphs" textLength="78" x="185" y="273.3198">Color colorval</text><line style="stroke: #A80036; stroke-width: 1.5;" x1="166" x2="286" y1="279.9141" y2="279.9141"/><!--MD5=[466d348f815b372b6b2c8ee00db4349c]
class ef::diagrams_widget.dart::Sales--><rect fill="#FEFECE" filter="url(#fzm6xwopqn8uh)" height="73.6094" id="ef::diagrams_widget.dart::Sales" style="stroke: #A80036; stroke-width: 1.5;" width="91" x="38.5" y="207.5"/><ellipse cx="64.75" cy="223.5" fill="#ADD1B2" rx="11" ry="11" style="stroke: #A80036; stroke-width: 1.0;"/><path d="M67.0938,219.1719 L67.2656,219.25 C67.4844,218.9375 67.6875,218.8438 67.9844,218.8438 C68.2813,218.8438 68.5625,218.9844 68.7188,219.25 C68.8125,219.4063 68.8281,219.5313 68.8281,219.9688 L68.8281,221.3906 C68.8281,221.8125 68.7969,222 68.6875,222.1563 C68.5156,222.375 68.25,222.5156 67.9844,222.5156 C67.7656,222.5156 67.5313,222.4063 67.3906,222.2656 C67.25,222.1406 67.2188,222.0156 67.1563,221.6094 C67.0625,221.2031 66.8906,220.9844 66.4063,220.7031 C65.9375,220.4531 65.3281,220.2969 64.75,220.2969 C63.0156,220.2969 61.7656,221.6094 61.7656,223.3906 L61.7656,224.4844 C61.7656,226.1875 63.0625,227.2813 65.1094,227.2813 C65.875,227.2813 66.5625,227.1563 66.9844,226.8906 C67.1719,226.7969 67.1719,226.7969 67.625,226.3125 C67.8125,226.125 68.0156,226.0469 68.2344,226.0469 C68.7031,226.0469 69.0938,226.4375 69.0938,226.8906 C69.0938,227.2813 68.7656,227.7344 68.1875,228.1406 C67.4375,228.6875 66.2813,228.9844 65.0625,228.9844 C62.1719,228.9844 60.0625,227.0938 60.0625,224.5156 L60.0625,223.3906 C60.0625,220.6719 62.0625,218.5938 64.6875,218.5938 C65.5625,218.5938 66.1563,218.7344 67.0938,219.1719 Z "/><text fill="#000000" font-family="sans-serif" font-size="12" lengthAdjust="spacingAndGlyphs" textLength="34" x="81.25" y="227.6543">Sales</text><line style="stroke: #A80036; stroke-width: 1.5;" x1="39.5" x2="128.5" y1="239.5" y2="239.5"/><ellipse cx="49.5" cy="250.5" fill="none" rx="3" ry="3" style="stroke: #038048; stroke-width: 1.0;"/><text fill="#000000" font-family="sans-serif" font-size="11" lengthAdjust="spacingAndGlyphs" textLength="59" x="58.5" y="253.7104">int yearval</text><ellipse cx="49.5" cy="263.3047" fill="none" rx="3" ry="3" style="stroke: #038048; stroke-width: 1.0;"/><text fill="#000000" font-family="sans-serif" font-size="11" lengthAdjust="spacingAndGlyphs" textLength="65" x="58.5" y="266.5151">int salesval</text><line style="stroke: #A80036; stroke-width: 1.5;" x1="39.5" x2="128.5" y1="273.1094" y2="273.1094"/><!--MD5=[d2e62aadffff5e51c9127899d6c4e7d9]
class flutter::src::widgets::framework.dart::Widget--><rect fill="#FEFECE" filter="url(#fzm6xwopqn8uh)" height="48" id="flutter::src::widgets::framework.dart::Widget" style="stroke: #A80036; stroke-width: 1.5;" width="75" x="1016.5" y="59"/><ellipse cx="1031.5" cy="75" fill="#ADD1B2" rx="11" ry="11" style="stroke: #A80036; stroke-width: 1.0;"/><path d="M1033.8438,70.6719 L1034.0156,70.75 C1034.2344,70.4375 1034.4375,70.3438 1034.7344,70.3438 C1035.0313,70.3438 1035.3125,70.4844 1035.4688,70.75 C1035.5625,70.9063 1035.5781,71.0313 1035.5781,71.4688 L1035.5781,72.8906 C1035.5781,73.3125 1035.5469,73.5 1035.4375,73.6563 C1035.2656,73.875 1035,74.0156 1034.7344,74.0156 C1034.5156,74.0156 1034.2813,73.9063 1034.1406,73.7656 C1034,73.6406 1033.9688,73.5156 1033.9063,73.1094 C1033.8125,72.7031 1033.6406,72.4844 1033.1563,72.2031 C1032.6875,71.9531 1032.0781,71.7969 1031.5,71.7969 C1029.7656,71.7969 1028.5156,73.1094 1028.5156,74.8906 L1028.5156,75.9844 C1028.5156,77.6875 1029.8125,78.7813 1031.8594,78.7813 C1032.625,78.7813 1033.3125,78.6563 1033.7344,78.3906 C1033.9219,78.2969 1033.9219,78.2969 1034.375,77.8125 C1034.5625,77.625 1034.7656,77.5469 1034.9844,77.5469 C1035.4531,77.5469 1035.8438,77.9375 1035.8438,78.3906 C1035.8438,78.7813 1035.5156,79.2344 1034.9375,79.6406 C1034.1875,80.1875 1033.0313,80.4844 1031.8125,80.4844 C1028.9219,80.4844 1026.8125,78.5938 1026.8125,76.0156 L1026.8125,74.8906 C1026.8125,72.1719 1028.8125,70.0938 1031.4375,70.0938 C1032.3125,70.0938 1032.9063,70.2344 1033.8438,70.6719 Z "/><text fill="#000000" font-family="sans-serif" font-size="12" lengthAdjust="spacingAndGlyphs" textLength="43" x="1045.5" y="79.1543">Widget</text><line style="stroke: #A80036; stroke-width: 1.5;" x1="1017.5" x2="1090.5" y1="91" y2="91"/><line style="stroke: #A80036; stroke-width: 1.5;" x1="1017.5" x2="1090.5" y1="99" y2="99"/><!--MD5=[aa3f7eeafec522ba9bc8f59b3155082c]
class flutter::src::widgets::framework.dart::StatefulWidget--><rect fill="#FEFECE" filter="url(#fzm6xwopqn8uh)" height="48" id="flutter::src::widgets::framework.dart::StatefulWidget" style="stroke: #A80036; stroke-width: 1.5;" width="124" x="1127" y="59"/><ellipse cx="1142" cy="75" fill="#ADD1B2" rx="11" ry="11" style="stroke: #A80036; stroke-width: 1.0;"/><path d="M1144.3438,70.6719 L1144.5156,70.75 C1144.7344,70.4375 1144.9375,70.3438 1145.2344,70.3438 C1145.5313,70.3438 1145.8125,70.4844 1145.9688,70.75 C1146.0625,70.9063 1146.0781,71.0313 1146.0781,71.4688 L1146.0781,72.8906 C1146.0781,73.3125 1146.0469,73.5 1145.9375,73.6563 C1145.7656,73.875 1145.5,74.0156 1145.2344,74.0156 C1145.0156,74.0156 1144.7813,73.9063 1144.6406,73.7656 C1144.5,73.6406 1144.4688,73.5156 1144.4063,73.1094 C1144.3125,72.7031 1144.1406,72.4844 1143.6563,72.2031 C1143.1875,71.9531 1142.5781,71.7969 1142,71.7969 C1140.2656,71.7969 1139.0156,73.1094 1139.0156,74.8906 L1139.0156,75.9844 C1139.0156,77.6875 1140.3125,78.7813 1142.3594,78.7813 C1143.125,78.7813 1143.8125,78.6563 1144.2344,78.3906 C1144.4219,78.2969 1144.4219,78.2969 1144.875,77.8125 C1145.0625,77.625 1145.2656,77.5469 1145.4844,77.5469 C1145.9531,77.5469 1146.3438,77.9375 1146.3438,78.3906 C1146.3438,78.7813 1146.0156,79.2344 1145.4375,79.6406 C1144.6875,80.1875 1143.5313,80.4844 1142.3125,80.4844 C1139.4219,80.4844 1137.3125,78.5938 1137.3125,76.0156 L1137.3125,74.8906 C1137.3125,72.1719 1139.3125,70.0938 1141.9375,70.0938 C1142.8125,70.0938 1143.4063,70.2344 1144.3438,70.6719 Z "/><text fill="#000000" font-family="sans-serif" font-size="12" lengthAdjust="spacingAndGlyphs" textLength="92" x="1156" y="79.1543">StatefulWidget</text><line style="stroke: #A80036; stroke-width: 1.5;" x1="1128" x2="1250" y1="91" y2="91"/><line style="stroke: #A80036; stroke-width: 1.5;" x1="1128" x2="1250" y1="99" y2="99"/><!--MD5=[481250324083d5ec2030fffe1fefaea3]
class flutter::src::widgets::framework.dart::State<T>--><rect fill="#FEFECE" filter="url(#fzm6xwopqn8uh)" height="48" id="flutter::src::widgets::framework.dart::State&lt;T&gt;" style="stroke: #A80036; stroke-width: 1.5;" width="93" x="1286.5" y="59"/><ellipse cx="1301.5" cy="75" fill="#ADD1B2" rx="11" ry="11" style="stroke: #A80036; stroke-width: 1.0;"/><path d="M1303.8438,70.6719 L1304.0156,70.75 C1304.2344,70.4375 1304.4375,70.3438 1304.7344,70.3438 C1305.0313,70.3438 1305.3125,70.4844 1305.4688,70.75 C1305.5625,70.9063 1305.5781,71.0313 1305.5781,71.4688 L1305.5781,72.8906 C1305.5781,73.3125 1305.5469,73.5 1305.4375,73.6563 C1305.2656,73.875 1305,74.0156 1304.7344,74.0156 C1304.5156,74.0156 1304.2813,73.9063 1304.1406,73.7656 C1304,73.6406 1303.9688,73.5156 1303.9063,73.1094 C1303.8125,72.7031 1303.6406,72.4844 1303.1563,72.2031 C1302.6875,71.9531 1302.0781,71.7969 1301.5,71.7969 C1299.7656,71.7969 1298.5156,73.1094 1298.5156,74.8906 L1298.5156,75.9844 C1298.5156,77.6875 1299.8125,78.7813 1301.8594,78.7813 C1302.625,78.7813 1303.3125,78.6563 1303.7344,78.3906 C1303.9219,78.2969 1303.9219,78.2969 1304.375,77.8125 C1304.5625,77.625 1304.7656,77.5469 1304.9844,77.5469 C1305.4531,77.5469 1305.8438,77.9375 1305.8438,78.3906 C1305.8438,78.7813 1305.5156,79.2344 1304.9375,79.6406 C1304.1875,80.1875 1303.0313,80.4844 1301.8125,80.4844 C1298.9219,80.4844 1296.8125,78.5938 1296.8125,76.0156 L1296.8125,74.8906 C1296.8125,72.1719 1298.8125,70.0938 1301.4375,70.0938 C1302.3125,70.0938 1302.9063,70.2344 1303.8438,70.6719 Z "/><text fill="#000000" font-family="sans-serif" font-size="12" lengthAdjust="spacingAndGlyphs" textLength="61" x="1315.5" y="79.1543">State&lt;T&gt;</text><line style="stroke: #A80036; stroke-width: 1.5;" x1="1287.5" x2="1378.5" y1="91" y2="91"/><line style="stroke: #A80036; stroke-width: 1.5;" x1="1287.5" x2="1378.5" y1="99" y2="99"/><!--MD5=[efc9ff8382eabd0f0b822d1be18a98a9]
class flutter::src::widgets::framework.dart::StatelessWidget--><rect fill="#FEFECE" filter="url(#fzm6xwopqn8uh)" height="48" id="flutter::src::widgets::framework.dart::StatelessWidget" style="stroke: #A80036; stroke-width: 1.5;" width="134" x="1415" y="59"/><ellipse cx="1430" cy="75" fill="#ADD1B2" rx="11" ry="11" style="stroke: #A80036; stroke-width: 1.0;"/><path d="M1432.3438,70.6719 L1432.5156,70.75 C1432.7344,70.4375 1432.9375,70.3438 1433.2344,70.3438 C1433.5313,70.3438 1433.8125,70.4844 1433.9688,70.75 C1434.0625,70.9063 1434.0781,71.0313 1434.0781,71.4688 L1434.0781,72.8906 C1434.0781,73.3125 1434.0469,73.5 1433.9375,73.6563 C1433.7656,73.875 1433.5,74.0156 1433.2344,74.0156 C1433.0156,74.0156 1432.7813,73.9063 1432.6406,73.7656 C1432.5,73.6406 1432.4688,73.5156 1432.4063,73.1094 C1432.3125,72.7031 1432.1406,72.4844 1431.6563,72.2031 C1431.1875,71.9531 1430.5781,71.7969 1430,71.7969 C1428.2656,71.7969 1427.0156,73.1094 1427.0156,74.8906 L1427.0156,75.9844 C1427.0156,77.6875 1428.3125,78.7813 1430.3594,78.7813 C1431.125,78.7813 1431.8125,78.6563 1432.2344,78.3906 C1432.4219,78.2969 1432.4219,78.2969 1432.875,77.8125 C1433.0625,77.625 1433.2656,77.5469 1433.4844,77.5469 C1433.9531,77.5469 1434.3438,77.9375 1434.3438,78.3906 C1434.3438,78.7813 1434.0156,79.2344 1433.4375,79.6406 C1432.6875,80.1875 1431.5313,80.4844 1430.3125,80.4844 C1427.4219,80.4844 1425.3125,78.5938 1425.3125,76.0156 L1425.3125,74.8906 C1425.3125,72.1719 1427.3125,70.0938 1429.9375,70.0938 C1430.8125,70.0938 1431.4063,70.2344 1432.3438,70.6719 Z "/><text fill="#000000" font-family="sans-serif" font-size="12" lengthAdjust="spacingAndGlyphs" textLength="102" x="1444" y="79.1543">StatelessWidget</text><line style="stroke: #A80036; stroke-width: 1.5;" x1="1416" x2="1548" y1="91" y2="91"/><line style="stroke: #A80036; stroke-width: 1.5;" x1="1416" x2="1548" y1="99" y2="99"/><!--MD5=[7ee8008bd02dd47c47fead127d6fe347]
class dart::ui::Color--><rect fill="#FEFECE" filter="url(#fzm6xwopqn8uh)" height="48" id="dart::ui::Color" style="stroke: #A80036; stroke-width: 1.5;" width="64" x="1668" y="382"/><ellipse cx="1683" cy="398" fill="#ADD1B2" rx="11" ry="11" style="stroke: #A80036; stroke-width: 1.0;"/><path d="M1685.3438,393.6719 L1685.5156,393.75 C1685.7344,393.4375 1685.9375,393.3438 1686.2344,393.3438 C1686.5313,393.3438 1686.8125,393.4844 1686.9688,393.75 C1687.0625,393.9063 1687.0781,394.0313 1687.0781,394.4688 L1687.0781,395.8906 C1687.0781,396.3125 1687.0469,396.5 1686.9375,396.6563 C1686.7656,396.875 1686.5,397.0156 1686.2344,397.0156 C1686.0156,397.0156 1685.7813,396.9063 1685.6406,396.7656 C1685.5,396.6406 1685.4688,396.5156 1685.4063,396.1094 C1685.3125,395.7031 1685.1406,395.4844 1684.6563,395.2031 C1684.1875,394.9531 1683.5781,394.7969 1683,394.7969 C1681.2656,394.7969 1680.0156,396.1094 1680.0156,397.8906 L1680.0156,398.9844 C1680.0156,400.6875 1681.3125,401.7813 1683.3594,401.7813 C1684.125,401.7813 1684.8125,401.6563 1685.2344,401.3906 C1685.4219,401.2969 1685.4219,401.2969 1685.875,400.8125 C1686.0625,400.625 1686.2656,400.5469 1686.4844,400.5469 C1686.9531,400.5469 1687.3438,400.9375 1687.3438,401.3906 C1687.3438,401.7813 1687.0156,402.2344 1686.4375,402.6406 C1685.6875,403.1875 1684.5313,403.4844 1683.3125,403.4844 C1680.4219,403.4844 1678.3125,401.5938 1678.3125,399.0156 L1678.3125,397.8906 C1678.3125,395.1719 1680.3125,393.0938 1682.9375,393.0938 C1683.8125,393.0938 1684.4063,393.2344 1685.3438,393.6719 Z "/><text fill="#000000" font-family="sans-serif" font-size="12" lengthAdjust="spacingAndGlyphs" textLength="32" x="1697" y="402.1543">Color</text><line style="stroke: #A80036; stroke-width: 1.5;" x1="1669" x2="1731" y1="414" y2="414"/><line style="stroke: #A80036; stroke-width: 1.5;" x1="1669" x2="1731" y1="422" y2="422"/><!--MD5=[f62d7bbff4d9787370871734ba3e9431]
class ef::home_widget.dart::Home--><rect fill="#FEFECE" filter="url(#fzm6xwopqn8uh)" height="60.8047" id="ef::home_widget.dart::Home" style="stroke: #A80036; stroke-width: 1.5;" width="134" x="1086" y="214"/><ellipse cx="1130.75" cy="230" fill="#ADD1B2" rx="11" ry="11" style="stroke: #A80036; stroke-width: 1.0;"/><path d="M1133.0938,225.6719 L1133.2656,225.75 C1133.4844,225.4375 1133.6875,225.3438 1133.9844,225.3438 C1134.2813,225.3438 1134.5625,225.4844 1134.7188,225.75 C1134.8125,225.9063 1134.8281,226.0313 1134.8281,226.4688 L1134.8281,227.8906 C1134.8281,228.3125 1134.7969,228.5 1134.6875,228.6563 C1134.5156,228.875 1134.25,229.0156 1133.9844,229.0156 C1133.7656,229.0156 1133.5313,228.9063 1133.3906,228.7656 C1133.25,228.6406 1133.2188,228.5156 1133.1563,228.1094 C1133.0625,227.7031 1132.8906,227.4844 1132.4063,227.2031 C1131.9375,226.9531 1131.3281,226.7969 1130.75,226.7969 C1129.0156,226.7969 1127.7656,228.1094 1127.7656,229.8906 L1127.7656,230.9844 C1127.7656,232.6875 1129.0625,233.7813 1131.1094,233.7813 C1131.875,233.7813 1132.5625,233.6563 1132.9844,233.3906 C1133.1719,233.2969 1133.1719,233.2969 1133.625,232.8125 C1133.8125,232.625 1134.0156,232.5469 1134.2344,232.5469 C1134.7031,232.5469 1135.0938,232.9375 1135.0938,233.3906 C1135.0938,233.7813 1134.7656,234.2344 1134.1875,234.6406 C1133.4375,235.1875 1132.2813,235.4844 1131.0625,235.4844 C1128.1719,235.4844 1126.0625,233.5938 1126.0625,231.0156 L1126.0625,229.8906 C1126.0625,227.1719 1128.0625,225.0938 1130.6875,225.0938 C1131.5625,225.0938 1132.1563,225.2344 1133.0938,225.6719 Z "/><text fill="#000000" font-family="sans-serif" font-size="12" lengthAdjust="spacingAndGlyphs" textLength="36" x="1151.25" y="234.1543">Home</text><line style="stroke: #A80036; stroke-width: 1.5;" x1="1087" x2="1219" y1="246" y2="246"/><line style="stroke: #A80036; stroke-width: 1.5;" x1="1087" x2="1219" y1="254" y2="254"/><ellipse cx="1097" cy="265" fill="#84BE84" rx="3" ry="3" style="stroke: #038048; stroke-width: 1.0;"/><text fill="#000000" font-family="sans-serif" font-size="11" lengthAdjust="spacingAndGlyphs" textLength="108" x="1106" y="268.2104">State createState()</text><!--MD5=[02443cbb12e5f342f47770336b23ff21]
class ef::home_widget.dart::_HomeState--><rect fill="#FEFECE" filter="url(#fzm6xwopqn8uh)" height="99.2188" id="ef::home_widget.dart::_HomeState" style="stroke: #A80036; stroke-width: 1.5;" width="156" x="1255" y="195"/><ellipse cx="1291.6" cy="211" fill="#ADD1B2" rx="11" ry="11" style="stroke: #A80036; stroke-width: 1.0;"/><path d="M1293.9438,206.6719 L1294.1156,206.75 C1294.3344,206.4375 1294.5375,206.3438 1294.8344,206.3438 C1295.1313,206.3438 1295.4125,206.4844 1295.5688,206.75 C1295.6625,206.9063 1295.6781,207.0313 1295.6781,207.4688 L1295.6781,208.8906 C1295.6781,209.3125 1295.6469,209.5 1295.5375,209.6563 C1295.3656,209.875 1295.1,210.0156 1294.8344,210.0156 C1294.6156,210.0156 1294.3813,209.9063 1294.2406,209.7656 C1294.1,209.6406 1294.0688,209.5156 1294.0063,209.1094 C1293.9125,208.7031 1293.7406,208.4844 1293.2563,208.2031 C1292.7875,207.9531 1292.1781,207.7969 1291.6,207.7969 C1289.8656,207.7969 1288.6156,209.1094 1288.6156,210.8906 L1288.6156,211.9844 C1288.6156,213.6875 1289.9125,214.7813 1291.9594,214.7813 C1292.725,214.7813 1293.4125,214.6563 1293.8344,214.3906 C1294.0219,214.2969 1294.0219,214.2969 1294.475,213.8125 C1294.6625,213.625 1294.8656,213.5469 1295.0844,213.5469 C1295.5531,213.5469 1295.9438,213.9375 1295.9438,214.3906 C1295.9438,214.7813 1295.6156,215.2344 1295.0375,215.6406 C1294.2875,216.1875 1293.1313,216.4844 1291.9125,216.4844 C1289.0219,216.4844 1286.9125,214.5938 1286.9125,212.0156 L1286.9125,210.8906 C1286.9125,208.1719 1288.9125,206.0938 1291.5375,206.0938 C1292.4125,206.0938 1293.0063,206.2344 1293.9438,206.6719 Z "/><text fill="#000000" font-family="sans-serif" font-size="12" lengthAdjust="spacingAndGlyphs" textLength="76" x="1310.4" y="215.1543">_HomeState</text><line style="stroke: #A80036; stroke-width: 1.5;" x1="1256" x2="1410" y1="227" y2="227"/><rect fill="none" height="6" style="stroke: #C82930; stroke-width: 1.0;" width="6" x="1263" y="235"/><text fill="#000000" font-family="sans-serif" font-size="11" lengthAdjust="spacingAndGlyphs" textLength="95" x="1275" y="241.2104">int _currentIndex</text><rect fill="none" height="6" style="stroke: #C82930; stroke-width: 1.0;" width="6" x="1263" y="247.8047"/><text fill="#000000" font-family="sans-serif" font-size="11" lengthAdjust="spacingAndGlyphs" textLength="130" x="1275" y="254.0151">List&lt;Widget&gt; _children</text><line style="stroke: #A80036; stroke-width: 1.5;" x1="1256" x2="1410" y1="260.6094" y2="260.6094"/><ellipse cx="1266" cy="271.6094" fill="#84BE84" rx="3" ry="3" style="stroke: #038048; stroke-width: 1.0;"/><text fill="#000000" font-family="sans-serif" font-size="11" lengthAdjust="spacingAndGlyphs" textLength="76" x="1275" y="274.8198">Widget build()</text><ellipse cx="1266" cy="284.4141" fill="#84BE84" rx="3" ry="3" style="stroke: #038048; stroke-width: 1.0;"/><text fill="#000000" font-family="sans-serif" font-size="11" lengthAdjust="spacingAndGlyphs" textLength="112" x="1275" y="287.6245">void onTabTapped()</text><!--MD5=[71a7d002d5a308ae4d30e0b9e54fecb1]
class ef::main.dart::App--><rect fill="#FEFECE" filter="url(#fzm6xwopqn8uh)" height="60.8047" id="ef::main.dart::App" style="stroke: #A80036; stroke-width: 1.5;" width="102" x="1467" y="214"/><ellipse cx="1502.7" cy="230" fill="#ADD1B2" rx="11" ry="11" style="stroke: #A80036; stroke-width: 1.0;"/><path d="M1505.0438,225.6719 L1505.2156,225.75 C1505.4344,225.4375 1505.6375,225.3438 1505.9344,225.3438 C1506.2313,225.3438 1506.5125,225.4844 1506.6688,225.75 C1506.7625,225.9063 1506.7781,226.0313 1506.7781,226.4688 L1506.7781,227.8906 C1506.7781,228.3125 1506.7469,228.5 1506.6375,228.6563 C1506.4656,228.875 1506.2,229.0156 1505.9344,229.0156 C1505.7156,229.0156 1505.4813,228.9063 1505.3406,228.7656 C1505.2,228.6406 1505.1688,228.5156 1505.1063,228.1094 C1505.0125,227.7031 1504.8406,227.4844 1504.3563,227.2031 C1503.8875,226.9531 1503.2781,226.7969 1502.7,226.7969 C1500.9656,226.7969 1499.7156,228.1094 1499.7156,229.8906 L1499.7156,230.9844 C1499.7156,232.6875 1501.0125,233.7813 1503.0594,233.7813 C1503.825,233.7813 1504.5125,233.6563 1504.9344,233.3906 C1505.1219,233.2969 1505.1219,233.2969 1505.575,232.8125 C1505.7625,232.625 1505.9656,232.5469 1506.1844,232.5469 C1506.6531,232.5469 1507.0438,232.9375 1507.0438,233.3906 C1507.0438,233.7813 1506.7156,234.2344 1506.1375,234.6406 C1505.3875,235.1875 1504.2313,235.4844 1503.0125,235.4844 C1500.1219,235.4844 1498.0125,233.5938 1498.0125,231.0156 L1498.0125,229.8906 C1498.0125,227.1719 1500.0125,225.0938 1502.6375,225.0938 C1503.5125,225.0938 1504.1063,225.2344 1505.0438,225.6719 Z "/><text fill="#000000" font-family="sans-serif" font-size="12" lengthAdjust="spacingAndGlyphs" textLength="24" x="1521.3" y="234.1543">App</text><line style="stroke: #A80036; stroke-width: 1.5;" x1="1468" x2="1568" y1="246" y2="246"/><line style="stroke: #A80036; stroke-width: 1.5;" x1="1468" x2="1568" y1="254" y2="254"/><ellipse cx="1478" cy="265" fill="#84BE84" rx="3" ry="3" style="stroke: #038048; stroke-width: 1.0;"/><text fill="#000000" font-family="sans-serif" font-size="11" lengthAdjust="spacingAndGlyphs" textLength="76" x="1487" y="268.2104">Widget build()</text><!--MD5=[cbcc00817dd62b99ce7991bcca9c6547]
class ef::placeholder_widget.dart::PlaceholderWidget--><rect fill="#FEFECE" filter="url(#fzm6xwopqn8uh)" height="73.6094" id="ef::placeholder_widget.dart::PlaceholderWidget" style="stroke: #A80036; stroke-width: 1.5;" width="149" x="1625.5" y="207.5"/><ellipse cx="1640.5" cy="223.5" fill="#ADD1B2" rx="11" ry="11" style="stroke: #A80036; stroke-width: 1.0;"/><path d="M1642.8438,219.1719 L1643.0156,219.25 C1643.2344,218.9375 1643.4375,218.8438 1643.7344,218.8438 C1644.0313,218.8438 1644.3125,218.9844 1644.4688,219.25 C1644.5625,219.4063 1644.5781,219.5313 1644.5781,219.9688 L1644.5781,221.3906 C1644.5781,221.8125 1644.5469,222 1644.4375,222.1563 C1644.2656,222.375 1644,222.5156 1643.7344,222.5156 C1643.5156,222.5156 1643.2813,222.4063 1643.1406,222.2656 C1643,222.1406 1642.9688,222.0156 1642.9063,221.6094 C1642.8125,221.2031 1642.6406,220.9844 1642.1563,220.7031 C1641.6875,220.4531 1641.0781,220.2969 1640.5,220.2969 C1638.7656,220.2969 1637.5156,221.6094 1637.5156,223.3906 L1637.5156,224.4844 C1637.5156,226.1875 1638.8125,227.2813 1640.8594,227.2813 C1641.625,227.2813 1642.3125,227.1563 1642.7344,226.8906 C1642.9219,226.7969 1642.9219,226.7969 1643.375,226.3125 C1643.5625,226.125 1643.7656,226.0469 1643.9844,226.0469 C1644.4531,226.0469 1644.8438,226.4375 1644.8438,226.8906 C1644.8438,227.2813 1644.5156,227.7344 1643.9375,228.1406 C1643.1875,228.6875 1642.0313,228.9844 1640.8125,228.9844 C1637.9219,228.9844 1635.8125,227.0938 1635.8125,224.5156 L1635.8125,223.3906 C1635.8125,220.6719 1637.8125,218.5938 1640.4375,218.5938 C1641.3125,218.5938 1641.9063,218.7344 1642.8438,219.1719 Z "/><text fill="#000000" font-family="sans-serif" font-size="12" lengthAdjust="spacingAndGlyphs" textLength="117" x="1654.5" y="227.6543">PlaceholderWidget</text><line style="stroke: #A80036; stroke-width: 1.5;" x1="1626.5" x2="1773.5" y1="239.5" y2="239.5"/><ellipse cx="1636.5" cy="250.5" fill="none" rx="3" ry="3" style="stroke: #038048; stroke-width: 1.0;"/><text fill="#000000" font-family="sans-serif" font-size="11" lengthAdjust="spacingAndGlyphs" textLength="62" x="1645.5" y="253.7104">Color color</text><line style="stroke: #A80036; stroke-width: 1.5;" x1="1626.5" x2="1773.5" y1="260.3047" y2="260.3047"/><ellipse cx="1636.5" cy="271.3047" fill="#84BE84" rx="3" ry="3" style="stroke: #038048; stroke-width: 1.0;"/><text fill="#000000" font-family="sans-serif" font-size="11" lengthAdjust="spacingAndGlyphs" textLength="76" x="1645.5" y="274.5151">Widget build()</text><!--MD5=[f3465ea023e40cb31c8d376db9d9c217]
class ef::settings::container.dart::Div--><rect fill="#FEFECE" filter="url(#fzm6xwopqn8uh)" height="73.6094" id="ef::settings::container.dart::Div" style="stroke: #A80036; stroke-width: 1.5;" width="102" x="1884" y="207.5"/><ellipse cx="1922.4" cy="223.5" fill="#ADD1B2" rx="11" ry="11" style="stroke: #A80036; stroke-width: 1.0;"/><path d="M1924.7438,219.1719 L1924.9156,219.25 C1925.1344,218.9375 1925.3375,218.8438 1925.6344,218.8438 C1925.9313,218.8438 1926.2125,218.9844 1926.3688,219.25 C1926.4625,219.4063 1926.4781,219.5313 1926.4781,219.9688 L1926.4781,221.3906 C1926.4781,221.8125 1926.4469,222 1926.3375,222.1563 C1926.1656,222.375 1925.9,222.5156 1925.6344,222.5156 C1925.4156,222.5156 1925.1813,222.4063 1925.0406,222.2656 C1924.9,222.1406 1924.8688,222.0156 1924.8063,221.6094 C1924.7125,221.2031 1924.5406,220.9844 1924.0563,220.7031 C1923.5875,220.4531 1922.9781,220.2969 1922.4,220.2969 C1920.6656,220.2969 1919.4156,221.6094 1919.4156,223.3906 L1919.4156,224.4844 C1919.4156,226.1875 1920.7125,227.2813 1922.7594,227.2813 C1923.525,227.2813 1924.2125,227.1563 1924.6344,226.8906 C1924.8219,226.7969 1924.8219,226.7969 1925.275,226.3125 C1925.4625,226.125 1925.6656,226.0469 1925.8844,226.0469 C1926.3531,226.0469 1926.7438,226.4375 1926.7438,226.8906 C1926.7438,227.2813 1926.4156,227.7344 1925.8375,228.1406 C1925.0875,228.6875 1923.9313,228.9844 1922.7125,228.9844 C1919.8219,228.9844 1917.7125,227.0938 1917.7125,224.5156 L1917.7125,223.3906 C1917.7125,220.6719 1919.7125,218.5938 1922.3375,218.5938 C1923.2125,218.5938 1923.8063,218.7344 1924.7438,219.1719 Z "/><text fill="#000000" font-family="sans-serif" font-size="12" lengthAdjust="spacingAndGlyphs" textLength="18" x="1941.6" y="227.6543">Div</text><line style="stroke: #A80036; stroke-width: 1.5;" x1="1885" x2="1985" y1="239.5" y2="239.5"/><rect fill="none" height="6" style="stroke: #C82930; stroke-width: 1.0;" width="6" x="1892" y="247.5"/><text fill="#000000" font-family="sans-serif" font-size="11" lengthAdjust="spacingAndGlyphs" textLength="68" x="1904" y="253.7104">Color _color</text><line style="stroke: #A80036; stroke-width: 1.5;" x1="1885" x2="1985" y1="260.3047" y2="260.3047"/><ellipse cx="1895" cy="271.3047" fill="#84BE84" rx="3" ry="3" style="stroke: #038048; stroke-width: 1.0;"/><text fill="#000000" font-family="sans-serif" font-size="11" lengthAdjust="spacingAndGlyphs" textLength="76" x="1904" y="274.5151">Widget build()</text><!--MD5=[b7d5a23b066d01b1cd8dbac951eac69a]
class ef::settings::settings.dart::Settings--><rect fill="#FEFECE" filter="url(#fzm6xwopqn8uh)" height="60.8047" id="ef::settings::settings.dart::Settings" style="stroke: #A80036; stroke-width: 1.5;" width="102" x="2140" y="214"/><ellipse cx="2163.1" cy="230" fill="#ADD1B2" rx="11" ry="11" style="stroke: #A80036; stroke-width: 1.0;"/><path d="M2165.4438,225.6719 L2165.6156,225.75 C2165.8344,225.4375 2166.0375,225.3438 2166.3344,225.3438 C2166.6313,225.3438 2166.9125,225.4844 2167.0688,225.75 C2167.1625,225.9063 2167.1781,226.0313 2167.1781,226.4688 L2167.1781,227.8906 C2167.1781,228.3125 2167.1469,228.5 2167.0375,228.6563 C2166.8656,228.875 2166.6,229.0156 2166.3344,229.0156 C2166.1156,229.0156 2165.8813,228.9063 2165.7406,228.7656 C2165.6,228.6406 2165.5688,228.5156 2165.5063,228.1094 C2165.4125,227.7031 2165.2406,227.4844 2164.7563,227.2031 C2164.2875,226.9531 2163.6781,226.7969 2163.1,226.7969 C2161.3656,226.7969 2160.1156,228.1094 2160.1156,229.8906 L2160.1156,230.9844 C2160.1156,232.6875 2161.4125,233.7813 2163.4594,233.7813 C2164.225,233.7813 2164.9125,233.6563 2165.3344,233.3906 C2165.5219,233.2969 2165.5219,233.2969 2165.975,232.8125 C2166.1625,232.625 2166.3656,232.5469 2166.5844,232.5469 C2167.0531,232.5469 2167.4438,232.9375 2167.4438,233.3906 C2167.4438,233.7813 2167.1156,234.2344 2166.5375,234.6406 C2165.7875,235.1875 2164.6313,235.4844 2163.4125,235.4844 C2160.5219,235.4844 2158.4125,233.5938 2158.4125,231.0156 L2158.4125,229.8906 C2158.4125,227.1719 2160.4125,225.0938 2163.0375,225.0938 C2163.9125,225.0938 2164.5063,225.2344 2165.4438,225.6719 Z "/><text fill="#000000" font-family="sans-serif" font-size="12" lengthAdjust="spacingAndGlyphs" textLength="52" x="2178.9" y="234.1543">Settings</text><line style="stroke: #A80036; stroke-width: 1.5;" x1="2141" x2="2241" y1="246" y2="246"/><line style="stroke: #A80036; stroke-width: 1.5;" x1="2141" x2="2241" y1="254" y2="254"/><ellipse cx="2151" cy="265" fill="#84BE84" rx="3" ry="3" style="stroke: #038048; stroke-width: 1.0;"/><text fill="#000000" font-family="sans-serif" font-size="11" lengthAdjust="spacingAndGlyphs" textLength="76" x="2160" y="268.2104">Widget build()</text><!--MD5=[a69d2b452ab13348454d42011e9ed204]
reverse link ef::diagrams_widget.dart::DiagramPage to flutter::src::widgets::framework.dart::Widget--><path d="M621.713,198.126 C644.404,176.791 673.98,153.015 705,139 C810.507,91.332 950.155,84.057 1016.24,83.524 " fill="none" id="ef::diagrams_widget.dart::DiagramPage&lt;-flutter::src::widgets::framework.dart::Widget" style="stroke: #A80036; stroke-width: 1.0;"/><polygon fill="#FFFFFF" points="612.108,207.398,619.2029,206.1087,620.7416,199.0637,613.6467,200.353,612.108,207.398" style="stroke: #A80036; stroke-width: 1.0;"/><!--MD5=[9f89cdf63f570a3e5c5d422306773adc]
reverse link flutter::src::widgets::framework.dart::StatefulWidget to ef::diagrams_widget.dart::DiagramPage--><path d="M1140.86,117.522 C1130.75,123.029 1119.85,127.933 1109,131 C1065.8,143.213 747.081,123.348 705,139 C667.576,152.92 633.278,183.037 609.947,207.38 " fill="none" id="flutter::src::widgets::framework.dart::StatefulWidget&lt;-ef::diagrams_widget.dart::DiagramPage" style="stroke: #A80036; stroke-width: 1.0;"/><polygon fill="none" points="1137.27,111.513,1158.02,107.225,1144.47,123.517,1137.27,111.513" style="stroke: #A80036; stroke-width: 1.0;"/><!--MD5=[968d4b6201a4e7e502146afcdcfbcb66]
reverse link flutter::src::widgets::framework.dart::State<T> to ef::diagrams_widget.dart::_DiagramPageState--><path d="M1292.7,118.968 C1285.24,123.826 1277.2,128.13 1269,131 C1227.23,145.626 1112.69,127.317 1070,139 C1035.68,148.392 1000.698,164.751 970.057,181.776 " fill="none" id="flutter::src::widgets::framework.dart::State&lt;T&gt;&lt;-ef::diagrams_widget.dart::_DiagramPageState" style="stroke: #A80036; stroke-width: 1.0;"/><polygon fill="none" points="1288.61,113.281,1308.86,107.04,1296.93,124.547,1288.61,113.281" style="stroke: #A80036; stroke-width: 1.0;"/><!--MD5=[b8b60e09abd5ae03c225fe359b0bb089]
reverse link ef::diagrams_widget.dart::Task to dart::ui::Color--><path d="M262.429,297.669 C274.387,310.848 288.818,323.403 305,331 C432.125,390.6843 1471.21,402.9447 1667.93,404.7384 " fill="none" id="ef::diagrams_widget.dart::Task&lt;-dart::ui::Color" style="stroke: #A80036; stroke-width: 1.0;"/><polygon fill="#FFFFFF" points="253.779,287.541,254.6339,294.7012,261.5722,296.666,260.7173,289.5058,253.779,287.541" style="stroke: #A80036; stroke-width: 1.0;"/><!--MD5=[77cc0eb482193efbabfaa5c21ec4c456]
reverse link flutter::src::widgets::framework.dart::StatefulWidget to ef::home_widget.dart::Home--><path d="M1179.33,126.86 C1173.13,154.335 1165.23,189.302 1159.71,213.755 " fill="none" id="flutter::src::widgets::framework.dart::StatefulWidget&lt;-ef::home_widget.dart::Home" style="stroke: #A80036; stroke-width: 1.0;"/><polygon fill="none" points="1172.53,125.161,1183.77,107.193,1186.19,128.243,1172.53,125.161" style="stroke: #A80036; stroke-width: 1.0;"/><!--MD5=[1409b9642ab966c03e7eecea76d095a3]
reverse link flutter::src::widgets::framework.dart::State<T> to ef::home_widget.dart::_HomeState--><path d="M1333,127.455 C1333,148.33 1333,173.422 1333,194.925 " fill="none" id="flutter::src::widgets::framework.dart::State&lt;T&gt;&lt;-ef::home_widget.dart::_HomeState" style="stroke: #A80036; stroke-width: 1.0;"/><polygon fill="none" points="1326,127.193,1333,107.193,1340,127.193,1326,127.193" style="stroke: #A80036; stroke-width: 1.0;"/><!--MD5=[5834867da250a7b19e3ed252b5877692]
reverse link flutter::src::widgets::framework.dart::StatelessWidget to ef::main.dart::App--><path d="M1491.67,126.86 C1497.87,154.335 1505.77,189.302 1511.29,213.755 " fill="none" id="flutter::src::widgets::framework.dart::StatelessWidget&lt;-ef::main.dart::App" style="stroke: #A80036; stroke-width: 1.0;"/><polygon fill="none" points="1484.81,128.243,1487.23,107.193,1498.47,125.161,1484.81,128.243" style="stroke: #A80036; stroke-width: 1.0;"/><!--MD5=[65f96d14f55c8ce3566cc7b87f4a878f]
reverse link ef::placeholder_widget.dart::PlaceholderWidget to dart::ui::Color--><path d="M1700,294.906 C1700,323.867 1700,359.104 1700,381.7833 " fill="none" id="ef::placeholder_widget.dart::PlaceholderWidget&lt;-dart::ui::Color" style="stroke: #A80036; stroke-width: 1.0;"/><polygon fill="#FFFFFF" points="1700,281.693,1696,287.693,1700,293.693,1704,287.693,1700,281.693" style="stroke: #A80036; stroke-width: 1.0;"/><!--MD5=[7f007075de228c6c23932ad40a88d079]
reverse link flutter::src::widgets::framework.dart::StatelessWidget to ef::placeholder_widget.dart::PlaceholderWidget--><path d="M1548.91,116.612 C1561.24,123.486 1573.76,131.074 1585,139 C1613.77,159.284 1643.1,186.043 1664.93,207.405 " fill="none" id="flutter::src::widgets::framework.dart::StatelessWidget&lt;-ef::placeholder_widget.dart::PlaceholderWidget" style="stroke: #A80036; stroke-width: 1.0;"/><polygon fill="none" points="1545.47,122.714,1531.15,107.098,1552.08,110.373,1545.47,122.714" style="stroke: #A80036; stroke-width: 1.0;"/><!--MD5=[091eef9f89baf50a039902917080926b]
reverse link ef::settings::container.dart::Div to dart::ui::Color--><path d="M1872.83,287.695 C1827.57,318.418 1768.1,358.778 1732.04,383.2562 " fill="none" id="ef::settings::container.dart::Div&lt;-dart::ui::Color" style="stroke: #A80036; stroke-width: 1.0;"/><polygon fill="#FFFFFF" points="1883.72,280.306,1876.5091,280.3658,1873.7909,287.045,1881.0018,286.9852,1883.72,280.306" style="stroke: #A80036; stroke-width: 1.0;"/><!--MD5=[2dcf3e399e13642af9dd214f1e821eda]
reverse link flutter::src::widgets::framework.dart::StatelessWidget to ef::settings::container.dart::Div--><path d="M1569.45,89.052 C1633.02,95.198 1720,108.818 1791,139 C1829.95,155.556 1868.45,184.32 1895.83,207.484 " fill="none" id="flutter::src::widgets::framework.dart::StatelessWidget&lt;-ef::settings::container.dart::Div" style="stroke: #A80036; stroke-width: 1.0;"/><polygon fill="none" points="1568.57,96.002,1549.26,87.274,1569.8,82.056,1568.57,96.002" style="stroke: #A80036; stroke-width: 1.0;"/><!--MD5=[e57098fdcc355d7b5fc23fe194da88ec]
reverse link flutter::src::widgets::framework.dart::StatelessWidget to ef::settings::settings.dart::Settings--><path d="M1569.22,89.017 C1695.73,97.008 1923.57,114.289 2002,139 C2056,156.014 2112.05,189.314 2148.95,213.768 " fill="none" id="flutter::src::widgets::framework.dart::StatelessWidget&lt;-ef::settings::settings.dart::Settings" style="stroke: #A80036; stroke-width: 1.0;"/><polygon fill="none" points="1568.61,95.993,1549.08,87.769,1569.47,82.019,1568.61,95.993" style="stroke: #A80036; stroke-width: 1.0;"/><!--MD5=[958a619c9249143549507f8582a5fd31]
@startuml
set namespaceSeparator ::

class "ef::diagrams_widget.dart::DiagramPage" {
  +Widget child
  +_DiagramPageState createState()
}

"ef::diagrams_widget.dart::DiagramPage" o- - "flutter::src::widgets::framework.dart::Widget"
"flutter::src::widgets::framework.dart::StatefulWidget" <|- - "ef::diagrams_widget.dart::DiagramPage"

class "ef::diagrams_widget.dart::_DiagramPageState" {
  -List<Series<SolidBarData, String>> _seriesData
  -List<Series<Task, String>> _seriesPieData
  -List<Series<Sales, int>> _seriesLineData
  -dynamic _generateData()
  +void initState()
  +Widget build()
}

"flutter::src::widgets::framework.dart::State<T>" <|- - "ef::diagrams_widget.dart::_DiagramPageState"

class "ef::diagrams_widget.dart::SolidBarData" {
  +String usage
  +int month
  +int quantity
}

class "ef::diagrams_widget.dart::Task" {
  +String task
  +double taskvalue
  +Color colorval
}

"ef::diagrams_widget.dart::Task" o- - "dart::ui::Color"

class "ef::diagrams_widget.dart::Sales" {
  +int yearval
  +int salesval
}

class "ef::home_widget.dart::Home" {
  +State createState()
}

"flutter::src::widgets::framework.dart::StatefulWidget" <|- - "ef::home_widget.dart::Home"

class "ef::home_widget.dart::_HomeState" {
  -int _currentIndex
  -List<Widget> _children
  +Widget build()
  +void onTabTapped()
}

"flutter::src::widgets::framework.dart::State<T>" <|- - "ef::home_widget.dart::_HomeState"

class "ef::main.dart::App" {
  +Widget build()
}

"flutter::src::widgets::framework.dart::StatelessWidget" <|- - "ef::main.dart::App"

class "ef::placeholder_widget.dart::PlaceholderWidget" {
  +Color color
  +Widget build()
}

"ef::placeholder_widget.dart::PlaceholderWidget" o- - "dart::ui::Color"
"flutter::src::widgets::framework.dart::StatelessWidget" <|- - "ef::placeholder_widget.dart::PlaceholderWidget"

class "ef::settings::container.dart::Div" {
  -Color _color
  +Widget build()
}

"ef::settings::container.dart::Div" o- - "dart::ui::Color"
"flutter::src::widgets::framework.dart::StatelessWidget" <|- - "ef::settings::container.dart::Div"

class "ef::settings::settings.dart::Settings" {
  +Widget build()
}

"flutter::src::widgets::framework.dart::StatelessWidget" <|- - "ef::settings::settings.dart::Settings"
@enduml

PlantUML version 1.2019.12(Sun Nov 03 10:24:54 UTC 2019)
(GPL source distribution)
Java Runtime: Java(TM) SE Runtime Environment
JVM: Java HotSpot(TM) 64-Bit Server VM
Java Version: 1.7.0_25-b15
Operating System: Linux
Default Encoding: UTF-8
Language: en
Country: US
--></g></svg>